<svg width="17" height="17" viewBox="0 0 17 17" fill="none" xmlns="http://www.w3.org/2000/svg">
<path d="M7.36184 16.5C5.57512 16.5 3.86158 15.7902 2.59818 14.5268C1.33477 13.2634 0.625 11.5499 0.625 9.76316C0.625 7.97644 1.33477 6.26289 2.59818 4.99949C3.86158 3.73609 5.57512 3.02632 7.36184 3.02632C7.58518 3.02632 7.79938 3.11504 7.9573 3.27296C8.11523 3.43089 8.20395 3.64508 8.20395 3.86842V8.92105H13.2566C13.4799 8.92105 13.6941 9.00977 13.852 9.1677C14.01 9.32563 14.0987 9.53982 14.0987 9.76316C14.0967 11.5493 13.3863 13.2616 12.1233 14.5246C10.8603 15.7876 9.14795 16.498 7.36184 16.5ZM6.51974 4.78042C5.60545 4.93514 4.75137 5.33848 4.05104 5.94627C3.35071 6.55406 2.83115 7.34286 2.54926 8.22626C2.26737 9.10966 2.23403 10.0536 2.45288 10.9547C2.67173 11.8558 3.13433 12.6793 3.79002 13.335C4.44572 13.9907 5.26921 14.4533 6.1703 14.6721C7.07139 14.891 8.01534 14.8576 8.89874 14.5757C9.78214 14.2938 10.5709 13.7743 11.1787 13.074C11.7865 12.3736 12.1899 11.5196 12.3446 10.6053H7.36184C7.1385 10.6053 6.92431 10.5165 6.76638 10.3586C6.60846 10.2007 6.51974 9.9865 6.51974 9.76316V4.78042Z" fill="#898587"/>
<path d="M15.7829 8.07895H9.88816C9.66482 8.07895 9.45063 7.99023 9.2927 7.8323C9.13477 7.67438 9.04605 7.46018 9.04605 7.23684V1.34211C9.04605 1.11877 9.13477 0.904572 9.2927 0.746647C9.45063 0.588722 9.66482 0.5 9.88816 0.5C11.6743 0.502006 13.3866 1.21242 14.6496 2.47539C15.9126 3.73836 16.623 5.45074 16.625 7.23684C16.625 7.46018 16.5363 7.67438 16.3784 7.8323C16.2204 7.99023 16.0062 8.07895 15.7829 8.07895ZM10.7303 6.39474H14.8709C14.6941 5.36089 14.2009 4.40737 13.4593 3.66572C12.7176 2.92407 11.7641 2.43085 10.7303 2.25411V6.39474Z" fill="#898587"/>
</svg>
