<svg width="40" height="40" viewBox="0 0 40 40" fill="none" xmlns="http://www.w3.org/2000/svg">
<path d="M6 0.5H34C37.0376 0.5 39.5 2.96243 39.5 6V34C39.5 37.0376 37.0376 39.5 34 39.5H6C2.96243 39.5 0.5 37.0376 0.5 34V6C0.5 2.96243 2.96243 0.5 6 0.5Z" fill="#771D1D"/>
<path d="M6 0.5H34C37.0376 0.5 39.5 2.96243 39.5 6V34C39.5 37.0376 37.0376 39.5 34 39.5H6C2.96243 39.5 0.5 37.0376 0.5 34V6C0.5 2.96243 2.96243 0.5 6 0.5Z" stroke="#2F2C2D"/>
<g clip-path="url(#clip0_12036_13629)">
<path d="M20 12C18.4178 12 16.871 12.4692 15.5554 13.3482C14.2398 14.2273 13.2145 15.4767 12.609 16.9385C12.0035 18.4003 11.845 20.0089 12.1537 21.5607C12.4624 23.1126 13.2243 24.538 14.3431 25.6569C15.462 26.7757 16.8874 27.5376 18.4393 27.8463C19.9911 28.155 21.5997 27.9965 23.0615 27.391C24.5233 26.7855 25.7727 25.7602 26.6518 24.4446C27.5308 23.129 28 21.5822 28 20C27.9977 17.879 27.1541 15.8455 25.6543 14.3457C24.1545 12.8459 22.121 12.0023 20 12ZM20 16C20.4747 16 20.9387 16.1408 21.3334 16.4045C21.728 16.6682 22.0357 17.043 22.2173 17.4816C22.399 17.9201 22.4465 18.4027 22.3539 18.8682C22.2613 19.3338 22.0327 19.7614 21.6971 20.0971C21.3614 20.4327 20.9338 20.6613 20.4682 20.7539C20.0027 20.8465 19.5201 20.799 19.0816 20.6173C18.643 20.4357 18.2682 20.128 18.0045 19.7334C17.7408 19.3387 17.6 18.8747 17.6 18.4C17.6 17.7635 17.8529 17.153 18.3029 16.7029C18.753 16.2529 19.3635 16 20 16ZM20 26.4C18.5914 26.4015 17.2136 25.9875 16.0392 25.2096C16.132 24.4361 16.5047 23.7232 17.087 23.2057C17.6693 22.6881 18.4209 22.4015 19.2 22.4H20.8C21.5791 22.4015 22.3307 22.6881 22.913 23.2057C23.4953 23.7232 23.868 24.4361 23.9608 25.2096C22.7864 25.9875 21.4086 26.4015 20 26.4Z" fill="#F98080"/>
</g>
<defs>
<clipPath id="clip0_12036_13629">
<rect width="16" height="16" fill="white" transform="translate(12 12)"/>
</clipPath>
</defs>
</svg>
