<svg width="40" height="40" viewBox="0 0 40 40" fill="none" xmlns="http://www.w3.org/2000/svg">
<path d="M6 0.5H34C37.0376 0.5 39.5 2.96243 39.5 6V34C39.5 37.0376 37.0376 39.5 34 39.5H6C2.96243 39.5 0.5 37.0376 0.5 34V6C0.5 2.96243 2.96243 0.5 6 0.5Z" fill="#633112"/>
<path d="M6 0.5H34C37.0376 0.5 39.5 2.96243 39.5 6V34C39.5 37.0376 37.0376 39.5 34 39.5H6C2.96243 39.5 0.5 37.0376 0.5 34V6C0.5 2.96243 2.96243 0.5 6 0.5Z" stroke="#2F2C2D"/>
<path d="M20.0002 13.334C23.6801 13.3342 26.6663 16.3211 26.6663 20.001C26.6661 23.6807 23.68 26.6668 20.0002 26.667C16.3204 26.667 13.3334 23.6808 13.3333 20.001C13.3333 16.321 16.3202 13.334 20.0002 13.334ZM18.6663 23.001L22.6663 20.001L18.6663 17.001V23.001Z" fill="#FACA15"/>
</svg>
