<svg width="40" height="40" viewBox="0 0 40 40" fill="none" xmlns="http://www.w3.org/2000/svg">
<path d="M20.0029 38.9916C9.51288 38.9916 1.01099 30.4869 1.01099 19.9985C1.01099 9.51015 9.51288 1.00867 20.0029 1.00867C30.4929 1.00867 38.9952 9.5126 38.9952 19.9989C38.9952 30.4853 30.4929 38.9921 20.0029 38.9921V38.9916Z" fill="#E42320"/>
<path d="M20.0041 0C8.95931 0 0 8.95483 0 19.9992C0 31.0435 8.95931 40 20.0041 40C31.0488 40 40.0061 31.0488 40.0061 19.9992C40.0061 8.94953 31.0509 0 20.0041 0ZM20.0041 2.18647C28.1133 2.18647 34.7444 7.66975 37.1109 15.0177C38.0294 17.8628 37.917 23.2133 34.3078 27.3076C32.3763 29.4917 29.8501 30.8464 27.8787 31.6329C22.505 33.7795 16.8608 32.0052 15.1737 27.8534C13.4878 23.7066 16.3904 18.3654 21.8329 16.3977C24.7921 15.3281 27.0991 15.4711 29.9405 15.9085L30.9205 11.0215L30.3316 10.9018C29.0009 10.6301 26.416 10.1605 23.2039 10.1605C10.2367 10.1605 3.92937 19.1275 3.92937 27.3956C3.92937 27.4954 3.92937 27.5964 3.93467 27.6983C2.81618 25.3688 2.18932 22.7575 2.18932 19.9992C2.18932 10.1605 10.1682 2.18647 20.0045 2.18647H20.0041Z" fill="url(#paint0_linear_1270_4478)"/>
<mask id="mask0_1270_4478" style="mask-type:luminance" maskUnits="userSpaceOnUse" x="2" y="2" width="36" height="31">
<path d="M6.42705 27.8913C6.42705 18.0775 14.3807 10.1173 24.1946 10.1173C29.3194 10.1173 33.9331 12.2895 37.1745 15.7566C35.2915 7.9667 28.2734 2.18689 19.908 2.18689C10.0929 2.18689 2.13477 10.1426 2.13477 19.9572C2.13477 24.6503 3.95506 28.919 6.92683 32.0952C6.59976 30.7487 6.42746 29.3389 6.42746 27.8918L6.42705 27.8913Z" fill="white"/>
</mask>
<g mask="url(#mask0_1270_4478)">
<path d="M40.0353 -0.0234375H-0.0449219V39.9318H40.0353V-0.0234375Z" fill="url(#paint1_linear_1270_4478)"/>
</g>
<defs>
<linearGradient id="paint0_linear_1270_4478" x1="20.0033" y1="47.1606" x2="20.0033" y2="-16.1761" gradientUnits="userSpaceOnUse">
<stop stop-color="#CCCCCC"/>
<stop offset="1" stop-color="white"/>
</linearGradient>
<linearGradient id="paint1_linear_1270_4478" x1="18.9315" y1="17.7889" x2="1.52038" y2="-17.6553" gradientUnits="userSpaceOnUse">
<stop offset="0.04" stop-color="white" stop-opacity="0"/>
<stop offset="1" stop-color="white"/>
</linearGradient>
</defs>
</svg>
